
<svg width="131px" height="116px" viewBox="0 0 131 116" version="1.1" xmlns="http://www.w3.org/2000/svg" xmlns:xlink="http://www.w3.org/1999/xlink">
    <g id="Home" stroke="none" stroke-width="1" fill="none" fill-rule="evenodd">
        <g id="Desktop" transform="translate(-617.000000, -20.000000)">
            <g id="Group" transform="translate(617.000000, 20.000000)">
                <path d="M56.8764,37.6504 C55.7744,37.8584 54.7224,38.1364 53.9734,38.6414 L53.9734,38.2154 L53.9734,36.0564 C53.9734,34.1254 53.9864,32.1944 53.9624,30.2654 C53.9574,29.7824 54.1024,29.4924 54.5434,29.2674 C56.0374,28.5104 57.6264,28.2614 59.3384,28.2244 C59.3384,31.3554 59.4464,34.6154 59.4464,37.4914 C58.4244,37.4724 57.6114,37.5404 56.8764,37.6504 M53.1954,36.0564 L53.1954,38.2154 L53.1954,38.6414 C52.4464,38.1364 51.3934,37.8584 50.2914,37.6504 C49.5554,37.5404 48.7434,37.4724 47.7204,37.4914 C47.7204,34.6154 47.8294,31.3554 47.8294,28.2244 C49.5414,28.2614 51.1304,28.5104 52.6254,29.2674 C53.0664,29.4924 53.2114,29.7824 53.2054,30.2654 C53.1814,32.1944 53.1954,34.1254 53.1954,36.0564 M61.2594,29.0464 L61.2624,28.9484 L59.9674,27.5854 C57.9164,27.5424 55.9624,27.7614 54.1704,28.7344 C53.9464,28.8574 53.7664,29.0294 53.5844,29.0144 C53.4014,29.0294 53.2204,28.8574 52.9974,28.7344 C51.2054,27.7614 49.2524,27.5424 47.2004,27.5854 L45.9064,28.9484 L45.9084,29.0464 C45.8724,29.1684 45.8824,29.3304 45.8824,29.4824 C45.8794,31.5204 45.8814,33.5604 45.8814,35.5994 L45.8814,39.2854 C47.0794,39.3524 48.2334,39.3724 49.3774,39.4894 C50.7444,39.6324 52.1134,39.8124 53.2074,40.8014 C53.2804,40.8684 53.4464,40.9044 53.5844,40.9004 C53.7214,40.9044 53.8884,40.8684 53.9604,40.8014 C55.0544,39.8124 56.4234,39.6324 57.7914,39.4894 C58.9354,39.3724 60.0894,39.3524 61.2874,39.2854 L61.2874,35.5994 C61.2874,33.5604 61.2874,31.5204 61.2864,29.4824 C61.2864,29.3304 61.2954,29.1684 61.2594,29.0464" id="Fill-4" fill="#044B84"></path>
                <path d="M90.2055,4.7889 L64.7255,4.8089 L66.6385,7.3369 L64.5945,10.0499 L64.5875,10.0589 L64.5945,10.0689 L66.6085,12.6559 L64.6955,15.2189 L64.5875,15.3629 L64.7005,15.5059 L66.6695,17.9749 L65.0905,19.9299 L64.7945,20.2969 L64.4945,20.6679 L64.8095,21.0589 L66.6085,23.2939 L64.8965,25.5579 L64.5835,25.9719 L64.9135,26.4009 L66.6085,28.6129 L65.7595,29.6819 L64.9955,30.6439 L64.4945,31.2769 L65.0215,31.9389 L66.6075,33.9309 L65.0965,35.7989 L64.4625,36.5809 L65.1275,37.3849 L66.6695,39.2509 L65.1985,41.0079 L64.4625,41.8859 L65.2345,42.8509 L66.6085,44.5689 L65.2995,46.1909 L64.4945,47.1899 L65.3405,48.2689 L66.6085,49.8889 L65.4035,51.4919 L64.6505,52.4939 L65.4445,53.5949 L66.6075,55.2069 L65.5015,56.5429 L64.4625,57.7979 L65.5525,59.1449 L66.6695,60.5269 L65.6045,61.7899 L64.5205,63.0739 C64.8865,63.2159 65.2595,63.3549 65.6385,63.4899 L65.6385,63.5119 C65.8805,63.4249 66.1195,63.3379 66.3585,63.2489 C66.4235,63.2239 66.4895,63.1989 66.5555,63.1739 C66.7865,63.0849 67.0175,62.9969 67.2455,62.9039 C67.2615,62.8979 67.2765,62.8919 67.2925,62.8849 C67.5275,62.7899 67.7595,62.6929 67.9895,62.5949 C68.0165,62.5839 68.0425,62.5709 68.0705,62.5599 C68.3125,62.4559 68.5545,62.3499 68.7915,62.2409 C68.8145,62.2319 68.8355,62.2209 68.8585,62.2109 C68.9875,62.1519 69.1155,62.0939 69.2435,62.0339 C69.2575,62.0259 69.2705,62.0199 69.2865,62.0139 C70.6005,61.3929 71.8345,60.7189 72.9925,60.0019 C72.9975,59.9979 73.0025,59.9949 73.0085,59.9919 C73.1275,59.9159 73.2465,59.8429 73.3635,59.7679 C73.3765,59.7589 73.3885,59.7509 73.4015,59.7429 C73.5155,59.6709 73.6265,59.5979 73.7385,59.5249 C73.7555,59.5139 73.7725,59.5029 73.7885,59.4909 C73.8975,59.4209 74.0035,59.3499 74.1115,59.2779 C74.1315,59.2639 74.1515,59.2509 74.1715,59.2369 C74.2755,59.1659 74.3795,59.0949 74.4825,59.0249 C74.5045,59.0099 74.5255,58.9949 74.5465,58.9799 C74.6475,58.9099 74.7495,58.8389 74.8505,58.7659 C74.8725,58.7509 74.8925,58.7359 74.9145,58.7209 C75.0145,58.6489 75.1145,58.5769 75.2135,58.5049 C75.2345,58.4899 75.2555,58.4749 75.2755,58.4599 C75.3745,58.3869 75.4735,58.3129 75.5725,58.2399 C75.5905,58.2259 75.6105,58.2109 75.6305,58.1959 C75.7295,58.1209 75.8285,58.0469 75.9245,57.9719 C75.9425,57.9579 75.9595,57.9449 75.9785,57.9319 C76.0775,57.8539 76.1765,57.7779 76.2735,57.7009 C76.2885,57.6889 76.3025,57.6779 76.3175,57.6659 C76.4185,57.5859 76.5185,57.5069 76.6175,57.4249 C76.6265,57.4179 76.6365,57.4109 76.6445,57.4029 C76.7495,57.3179 76.8535,57.2339 76.9565,57.1479 C76.9575,57.1469 76.9585,57.1449 76.9605,57.1439 C78.1635,56.1459 79.2585,55.1009 80.2565,54.0299 C80.2605,54.0259 80.2645,54.0219 80.2675,54.0179 C80.3535,53.9269 80.4375,53.8339 80.5215,53.7419 C80.5295,53.7339 80.5355,53.7279 80.5415,53.7199 C80.6235,53.6299 80.7055,53.5399 80.7855,53.4499 C80.7945,53.4399 80.8015,53.4299 80.8105,53.4219 C80.8905,53.3329 80.9685,53.2439 81.0465,53.1539 C81.0555,53.1439 81.0655,53.1329 81.0745,53.1229 C81.1515,53.0339 81.2275,52.9449 81.3035,52.8559 C81.3125,52.8449 81.3235,52.8339 81.3315,52.8219 C81.4085,52.7339 81.4835,52.6449 81.5585,52.5559 C81.5665,52.5449 81.5755,52.5339 81.5845,52.5239 C81.6595,52.4339 81.7345,52.3439 81.8085,52.2539 C81.8155,52.2439 81.8235,52.2349 81.8295,52.2259 C81.9045,52.1329 81.9795,52.0409 82.0535,51.9499 C82.0595,51.9419 82.0645,51.9349 82.0695,51.9279 C82.1455,51.8329 82.2215,51.7399 82.2945,51.6439 C82.2975,51.6419 82.2995,51.6379 82.3015,51.6359 C83.3185,50.3349 84.2105,49.0179 84.9895,47.7179 C85.0495,47.6169 85.1065,47.5199 85.1635,47.4239 C85.1665,47.4189 85.1695,47.4139 85.1725,47.4099 C85.2265,47.3149 85.2825,47.2219 85.3375,47.1269 C85.3405,47.1199 85.3445,47.1139 85.3485,47.1069 C85.4005,47.0139 85.4545,46.9219 85.5075,46.8289 C85.5115,46.8209 85.5165,46.8129 85.5195,46.8049 C85.5725,46.7139 85.6235,46.6209 85.6735,46.5299 C85.6785,46.5209 85.6825,46.5139 85.6875,46.5059 C85.7385,46.4139 85.7885,46.3209 85.8385,46.2299 C85.8415,46.2239 85.8445,46.2159 85.8485,46.2099 C85.8995,46.1169 85.9505,46.0239 85.9985,45.9309 C86.0015,45.9259 86.0035,45.9209 86.0065,45.9169 C86.0565,45.8209 86.1065,45.7259 86.1565,45.6319 C86.1575,45.6309 86.1575,45.6299 86.1585,45.6289 C86.8215,44.3549 87.3805,43.1159 87.8525,41.9459 C87.8525,41.9449 87.8545,41.9419 87.8545,41.9409 C87.8895,41.8539 87.9245,41.7679 87.9575,41.6829 C87.9595,41.6779 87.9605,41.6729 87.9635,41.6679 C87.9955,41.5859 88.0285,41.5019 88.0595,41.4209 C88.0635,41.4129 88.0655,41.4039 88.0695,41.3969 C88.1005,41.3169 88.1305,41.2369 88.1605,41.1569 C88.1645,41.1479 88.1685,41.1389 88.1705,41.1309 C88.2025,41.0499 88.2305,40.9719 88.2605,40.8929 C88.2635,40.8839 88.2675,40.8769 88.2695,40.8689 C88.2985,40.7889 88.3275,40.7119 88.3555,40.6329 C88.3595,40.6249 88.3625,40.6169 88.3655,40.6079 C88.3935,40.5299 88.4225,40.4529 88.4495,40.3759 C88.4525,40.3679 88.4555,40.3589 88.4585,40.3519 C88.4855,40.2739 88.5135,40.1959 88.5395,40.1189 C88.5415,40.1139 88.5435,40.1079 88.5455,40.1009 C88.5735,40.0229 88.6015,39.9439 88.6285,39.8649 C88.6285,39.8639 88.6295,39.8609 88.6295,39.8589 C88.9405,38.9519 89.1965,38.1079 89.4035,37.3469 C89.4055,37.3449 89.4055,37.3439 89.4065,37.3409 C89.4235,37.2779 89.4395,37.2129 89.4575,37.1499 C89.4585,37.1439 89.4615,37.1379 89.4625,37.1319 C89.4785,37.0709 89.4935,37.0129 89.5105,36.9539 C89.5125,36.9439 89.5155,36.9349 89.5175,36.9249 C89.5325,36.8689 89.5465,36.8139 89.5595,36.7589 C89.5635,36.7469 89.5665,36.7349 89.5685,36.7239 C89.5835,36.6699 89.5965,36.6169 89.6105,36.5649 C89.6125,36.5519 89.6165,36.5409 89.6195,36.5289 C89.6325,36.4759 89.6445,36.4249 89.6575,36.3739 L89.6665,36.3389 C89.6775,36.2889 89.6895,36.2379 89.7025,36.1889 C89.7055,36.1759 89.7075,36.1649 89.7115,36.1519 C89.7225,36.1029 89.7335,36.0549 89.7455,36.0069 C89.7485,35.9949 89.7515,35.9839 89.7535,35.9709 C89.7655,35.9239 89.7765,35.8769 89.7865,35.8309 C89.7885,35.8189 89.7925,35.8059 89.7955,35.7949 C89.8055,35.7479 89.8155,35.7029 89.8255,35.6599 C89.8295,35.6469 89.8315,35.6359 89.8335,35.6229 C89.8435,35.5779 89.8535,35.5349 89.8625,35.4909 C89.8655,35.4809 89.8665,35.4719 89.8695,35.4619 C89.8785,35.4169 89.8895,35.3719 89.8985,35.3279 C89.9005,35.3219 89.9015,35.3159 89.9025,35.3079 C89.9125,35.2619 89.9225,35.2159 89.9315,35.1689 C90.0055,34.8179 90.0635,34.5119 90.1115,34.2499 C90.1115,34.2469 90.1125,34.2419 90.1125,34.2379 C90.1175,34.2079 90.1235,34.1789 90.1285,34.1499 C90.1305,34.1419 90.1315,34.1329 90.1325,34.1239 C90.1375,34.0979 90.1415,34.0739 90.1465,34.0489 C90.1475,34.0389 90.1485,34.0279 90.1515,34.0179 C90.1555,33.9949 90.1595,33.9739 90.1635,33.9529 C90.1635,33.9399 90.1665,33.9279 90.1675,33.9149 C90.1715,33.8959 90.1745,33.8779 90.1775,33.8599 C90.1795,33.8479 90.1815,33.8349 90.1825,33.8229 C90.1865,33.8039 90.1885,33.7859 90.1915,33.7689 C90.1945,33.7589 90.1955,33.7479 90.1965,33.7359 C90.1995,33.7199 90.2015,33.7039 90.2045,33.6879 C90.2065,33.6779 90.2075,33.6659 90.2085,33.6559 C90.2115,33.6409 90.2145,33.6259 90.2155,33.6119 C90.2165,33.6009 90.2195,33.5909 90.2205,33.5809 C90.2225,33.5689 90.2245,33.5559 90.2255,33.5439 C90.2275,33.5349 90.2285,33.5249 90.2305,33.5149 C90.2315,33.5039 90.2325,33.4929 90.2335,33.4829 C90.2365,33.4729 90.2365,33.4639 90.2395,33.4539 C90.2405,33.4449 90.2415,33.4359 90.2425,33.4269 C90.2445,33.4169 90.2455,33.4089 90.2465,33.3999 C90.2465,33.3929 90.2475,33.3859 90.2485,33.3799 C90.2505,33.3709 90.2505,33.3619 90.2515,33.3539 C90.2525,33.3489 90.2535,33.3419 90.2535,33.3379 C90.2555,33.3309 90.2555,33.3249 90.2565,33.3189 C90.2575,33.3139 90.2575,33.3079 90.2595,33.3019 C90.2595,33.2989 90.2605,33.2949 90.2605,33.2909 C90.2615,33.2849 90.2615,33.2799 90.2625,33.2749 L90.2625,33.2719 C90.2625,33.2659 90.2645,33.2609 90.2645,33.2579 C90.2655,33.2469 90.2655,33.2419 90.2655,33.2419 L90.2055,4.7889 Z" id="Fill-6" fill="#044B84"></path>
                <path d="M75.2758,58.459 C75.2548,58.474 75.2348,58.49 75.2138,58.505 C75.2348,58.49 75.2548,58.474 75.2758,58.459" id="Fill-8" fill="#AF3D18"></path>
                <path d="M67.2934,62.8846 C67.2764,62.8906 67.2624,62.8966 67.2454,62.9046 C67.2624,62.8966 67.2764,62.8906 67.2934,62.8846" id="Fill-10" fill="#AF3D18"></path>
                <path d="M90.2626,33.2723 L90.2626,33.2763 L90.2626,33.2723 Z" id="Fill-12" fill="#AF3D18"></path>
                <path d="M81.3325,52.8223 C81.3235,52.8333 81.3135,52.8453 81.3035,52.8563 C81.3135,52.8453 81.3235,52.8333 81.3325,52.8223" id="Fill-14" fill="#AF3D18"></path>
                <path d="M90.2661,33.242 C90.2661,33.242 90.2661,33.247 90.2651,33.257 C90.2661,33.247 90.2661,33.242 90.2661,33.242" id="Fill-16" fill="#AF3D18"></path>
                <path d="M75.6308,58.1956 C75.6108,58.2106 75.5908,58.2256 75.5718,58.2396 C75.5908,58.2256 75.6108,58.2106 75.6308,58.1956" id="Fill-18" fill="#AF3D18"></path>
                <path d="M81.5849,52.523 C81.5759,52.534 81.5659,52.544 81.5579,52.556 C81.5659,52.544 81.5759,52.534 81.5849,52.523" id="Fill-20" fill="#AF3D18"></path>
                <path d="M66.5546,63.1739 C66.4896,63.1989 66.4236,63.2239 66.3586,63.2489 C66.4236,63.2239 66.4896,63.1989 66.5546,63.1739" id="Fill-22" fill="#AF3D18"></path>
                <path d="M75.978,57.9315 C75.96,57.9455 75.943,57.9575 75.926,57.9715 C75.943,57.9575 75.96,57.9455 75.978,57.9315" id="Fill-24" fill="#AF3D18"></path>
                <path d="M73.4018,59.743 C73.3898,59.752 73.3768,59.759 73.3638,59.767 C73.3768,59.759 73.3898,59.752 73.4018,59.743" id="Fill-26" fill="#AF3D18"></path>
                <path d="M80.811,53.4217 C80.802,53.4307 80.795,53.4407 80.786,53.4497 C80.795,53.4407 80.802,53.4307 80.811,53.4217" id="Fill-28" fill="#AF3D18"></path>
                <path d="M73.0083,59.991 C73.0033,59.995 72.9973,59.997 72.9923,60.001 C72.9973,59.997 73.0033,59.995 73.0083,59.991" id="Fill-30" fill="#AF3D18"></path>
                <path d="M76.6455,57.4031 C76.6365,57.4111 76.6265,57.4181 76.6165,57.4251 C76.6265,57.4181 76.6365,57.4111 76.6455,57.4031" id="Fill-32" fill="#AF3D18"></path>
                <path d="M80.5419,53.7205 C80.5359,53.7265 80.5289,53.7345 80.5209,53.7415 C80.5289,53.7345 80.5359,53.7265 80.5419,53.7205" id="Fill-34" fill="#AF3D18"></path>
                <path d="M80.2675,54.0181 C80.2645,54.0221 80.2605,54.0261 80.2575,54.0291 C80.2605,54.0261 80.2645,54.0221 80.2675,54.0181" id="Fill-36" fill="#AF3D18"></path>
                <path d="M74.1718,59.2369 C74.1518,59.2509 74.1318,59.2649 74.1118,59.2779 C74.1318,59.2649 74.1518,59.2509 74.1718,59.2369" id="Fill-38" fill="#AF3D18"></path>
                <path d="M68.0708,62.5601 C68.0428,62.5711 68.0158,62.5841 67.9888,62.5951 C68.0158,62.5841 68.0428,62.5721 68.0708,62.5601" id="Fill-40" fill="#AF3D18"></path>
                <path d="M76.9604,57.1446 C76.9594,57.1456 76.9574,57.1466 76.9564,57.1486 C76.9574,57.1466 76.9594,57.1456 76.9604,57.1446" id="Fill-42" fill="#AF3D18"></path>
                <path d="M76.3173,57.6658 C76.3023,57.6768 76.2893,57.6898 76.2743,57.7008 C76.2893,57.6898 76.3023,57.6768 76.3173,57.6658" id="Fill-44" fill="#AF3D18"></path>
                <path d="M69.2856,62.0135 C69.2716,62.0195 69.2566,62.0255 69.2436,62.0335 C69.2566,62.0255 69.2716,62.0195 69.2856,62.0135" id="Fill-46" fill="#AF3D18"></path>
                <path d="M81.0747,53.1219 C81.0657,53.1329 81.0557,53.1429 81.0467,53.1539 C81.0557,53.1429 81.0657,53.1329 81.0747,53.1219" id="Fill-48" fill="#AF3D18"></path>
                <path d="M74.9145,58.7205 C74.8935,58.7355 74.8725,58.7505 74.8505,58.7665 C74.8725,58.7505 74.8935,58.7355 74.9145,58.7205" id="Fill-50" fill="#AF3D18"></path>
                <path d="M74.5463,58.9803 C74.5253,58.9953 74.5043,59.0093 74.4833,59.0243 C74.5043,59.0093 74.5253,58.9953 74.5463,58.9803" id="Fill-52" fill="#AF3D18"></path>
                <path d="M68.8051,62.2359 C68.8231,62.2269 68.8401,62.2199 68.8571,62.2109 C68.8361,62.2209 68.8141,62.2319 68.7921,62.2419 C68.7961,62.2399 68.8011,62.2369 68.8051,62.2359" id="Fill-54" fill="#AF3D18"></path>
                <path d="M73.7895,59.4915 C73.7715,59.5025 73.7555,59.5135 73.7385,59.5255 C73.7555,59.5135 73.7715,59.5025 73.7895,59.4915" id="Fill-56" fill="#AF3D18"></path>
                <path d="M88.0693,41.397 C88.0673,41.404 88.0633,41.413 88.0603,41.421 C88.0633,41.413 88.0673,41.404 88.0693,41.397" id="Fill-58" fill="#AF3D18"></path>
                <path d="M87.9633,41.6683 C87.9613,41.6733 87.9593,41.6783 87.9583,41.6833 C87.9593,41.6783 87.9613,41.6733 87.9633,41.6683" id="Fill-60" fill="#AF3D18"></path>
                <path d="M88.1713,41.1302 C88.1683,41.1392 88.1653,41.1482 88.1613,41.1562 C88.1653,41.1482 88.1683,41.1392 88.1713,41.1302" id="Fill-62" fill="#AF3D18"></path>
                <path d="M87.8549,41.941 C87.8539,41.942 87.8539,41.945 87.8529,41.946 C87.8539,41.945 87.8539,41.942 87.8549,41.941" id="Fill-64" fill="#AF3D18"></path>
                <path d="M88.2695,40.8687 C88.2675,40.8767 88.2635,40.8847 88.2605,40.8927 C88.2635,40.8847 88.2675,40.8767 88.2695,40.8687" id="Fill-66" fill="#AF3D18"></path>
                <path d="M86.0063,45.9166 C86.0043,45.9216 86.0013,45.9256 85.9993,45.9306 C86.0013,45.9256 86.0043,45.9216 86.0063,45.9166" id="Fill-68" fill="#AF3D18"></path>
                <path d="M86.1586,45.628 C86.1576,45.629 86.1576,45.63 86.1566,45.632 C86.1576,45.63 86.1576,45.629 86.1586,45.628" id="Fill-70" fill="#AF3D18"></path>
                <path d="M89.4062,37.3419 C89.4062,37.3429 89.4052,37.3459 89.4052,37.3469 C89.4052,37.3459 89.4062,37.3429 89.4062,37.3419" id="Fill-72" fill="#AF3D18"></path>
                <path d="M88.3657,40.6082 C88.3627,40.6172 88.3597,40.6242 88.3567,40.6332 C88.3597,40.6242 88.3627,40.6172 88.3657,40.6082" id="Fill-74" fill="#AF3D18"></path>
                <path d="M88.6303,39.8589 C88.6293,39.8609 88.6293,39.8639 88.6283,39.8649 C88.6293,39.8639 88.6293,39.8609 88.6303,39.8589" id="Fill-76" fill="#AF3D18"></path>
                <path d="M88.5463,40.1011 C88.5443,40.1071 88.5423,40.1131 88.5403,40.1201 C88.5423,40.1131 88.5443,40.1071 88.5463,40.1011" id="Fill-78" fill="#AF3D18"></path>
                <path d="M88.4584,40.3509 C88.4554,40.3599 88.4524,40.3669 88.4494,40.3759 C88.4524,40.3669 88.4554,40.3599 88.4584,40.3509" id="Fill-80" fill="#AF3D18"></path>
                <path d="M82.0703,51.9285 C82.0643,51.9345 82.0593,51.9425 82.0543,51.9495 C82.0593,51.9425 82.0643,51.9345 82.0703,51.9285" id="Fill-82" fill="#AF3D18"></path>
                <path d="M82.3017,51.6358 C82.2987,51.6388 82.2977,51.6418 82.2957,51.6448 C82.2977,51.6418 82.2987,51.6388 82.3017,51.6358" id="Fill-84" fill="#AF3D18"></path>
                <path d="M89.4624,37.1319 C89.4614,37.1379 89.4594,37.1439 89.4574,37.1509 C89.4594,37.1439 89.4614,37.1379 89.4624,37.1319" id="Fill-86" fill="#AF3D18"></path>
                <path d="M64.5205,63.0735 L64.4955,63.1025 L65.6385,63.5125 L65.6385,63.4905 C65.2595,63.3545 64.8865,63.2165 64.5205,63.0735" id="Fill-88" fill="#AF3D18"></path>
                <path d="M81.8085,52.2532 C81.8155,52.2442 81.8235,52.2342 81.8305,52.2252 C81.8235,52.2342 81.8155,52.2442 81.8085,52.2532" id="Fill-90" fill="#AF3D18"></path>
                <path d="M85.8491,46.2098 C85.8451,46.2158 85.8411,46.2238 85.8391,46.2298 C85.8411,46.2238 85.8451,46.2158 85.8491,46.2098" id="Fill-92" fill="#AF3D18"></path>
                <path d="M85.52,46.805 C85.515,46.813 85.511,46.821 85.506,46.829 C85.511,46.821 85.515,46.813 85.52,46.805" id="Fill-94" fill="#AF3D18"></path>
                <path d="M85.687,46.5057 C85.682,46.5137 85.679,46.5217 85.673,46.5297 C85.679,46.5217 85.682,46.5137 85.687,46.5057" id="Fill-96" fill="#AF3D18"></path>
                <path d="M85.1723,47.4102 C85.1693,47.4142 85.1673,47.4192 85.1633,47.4242 C85.1673,47.4192 85.1693,47.4142 85.1723,47.4102" id="Fill-98" fill="#AF3D18"></path>
                <path d="M84.9921,47.7139 C84.9911,47.7149 84.9891,47.7159 84.9891,47.7189 C84.9891,47.7159 84.9911,47.7149 84.9921,47.7139" id="Fill-100" fill="#AF3D18"></path>
                <path d="M85.3481,47.1067 C85.3441,47.1147 85.3411,47.1207 85.3371,47.1267 C85.3411,47.1207 85.3441,47.1147 85.3481,47.1067" id="Fill-102" fill="#AF3D18"></path>
                <path d="M90.1967,33.7369 C90.1957,33.7479 90.1927,33.7579 90.1917,33.7689 C90.1927,33.7579 90.1957,33.7479 90.1967,33.7369" id="Fill-104" fill="#AF3D18"></path>
                <path d="M90.1835,33.8221 C90.1815,33.8351 90.1795,33.8471 90.1775,33.8601 C90.1795,33.8471 90.1815,33.8351 90.1835,33.8221" id="Fill-106" fill="#AF3D18"></path>
                <path d="M90.2602,33.2908 C90.2602,33.2948 90.2592,33.2988 90.2592,33.3038 C90.2592,33.2988 90.2602,33.2948 90.2602,33.2908" id="Fill-108" fill="#AF3D18"></path>
                <path d="M90.2094,33.6558 C90.2084,33.6658 90.2054,33.6768 90.2044,33.6868 C90.2054,33.6768 90.2084,33.6658 90.2094,33.6558" id="Fill-110" fill="#AF3D18"></path>
                <path d="M90.1513,34.0176 C90.1503,34.0276 90.1473,34.0386 90.1463,34.0486 C90.1473,34.0386 90.1503,34.0276 90.1513,34.0176" id="Fill-112" fill="#AF3D18"></path>
                <path d="M90.1684,33.9156 C90.1664,33.9276 90.1644,33.9396 90.1624,33.9516 C90.1644,33.9396 90.1664,33.9276 90.1684,33.9156" id="Fill-114" fill="#AF3D18"></path>
                <path d="M90.2207,33.5811 C90.2197,33.5911 90.2167,33.6021 90.2157,33.6121 C90.2167,33.6021 90.2197,33.5911 90.2207,33.5811" id="Fill-116" fill="#AF3D18"></path>
                <path d="M90.2387,33.4542 C90.2377,33.4632 90.2367,33.4732 90.2347,33.4822 C90.2367,33.4732 90.2377,33.4632 90.2387,33.4542" id="Fill-118" fill="#AF3D18"></path>
                <path d="M90.2568,33.3191 C90.2558,33.3251 90.2558,33.3311 90.2538,33.3381 C90.2558,33.3311 90.2558,33.3251 90.2568,33.3191" id="Fill-120" fill="#AF3D18"></path>
                <path d="M90.2519,33.3541 C90.2509,33.3631 90.2499,33.3701 90.2489,33.3801 C90.2499,33.3701 90.2509,33.3631 90.2519,33.3541" id="Fill-122" fill="#AF3D18"></path>
                <path d="M90.246,33.3997 C90.245,33.4087 90.244,33.4177 90.242,33.4277 C90.244,33.4177 90.245,33.4087 90.246,33.3997" id="Fill-124" fill="#AF3D18"></path>
                <path d="M90.1333,34.1241 C90.1323,34.1331 90.1303,34.1411 90.1283,34.1501 C90.1303,34.1411 90.1323,34.1331 90.1333,34.1241" id="Fill-126" fill="#AF3D18"></path>
                <path d="M90.2304,33.5152 C90.2294,33.5252 90.2274,33.5342 90.2254,33.5442 C90.2274,33.5342 90.2294,33.5252 90.2304,33.5152" id="Fill-128" fill="#AF3D18"></path>
                <path d="M89.666,36.3389 L89.657,36.3739 L89.666,36.3389 Z" id="Fill-130" fill="#AF3D18"></path>
                <path d="M89.517,36.9253 C89.515,36.9353 89.512,36.9443 89.51,36.9543 C89.512,36.9443 89.515,36.9353 89.517,36.9253" id="Fill-132" fill="#AF3D18"></path>
                <path d="M90.1132,34.2378 C90.1122,34.2418 90.1122,34.2468 90.1102,34.2498 C90.1122,34.2468 90.1122,34.2418 90.1132,34.2378" id="Fill-134" fill="#AF3D18"></path>
                <path d="M89.7539,35.9708 C89.7519,35.9828 89.7479,35.9948 89.7449,36.0068 C89.7479,35.9948 89.7519,35.9828 89.7539,35.9708" id="Fill-136" fill="#AF3D18"></path>
                <path d="M89.5693,36.7234 C89.5673,36.7364 89.5633,36.7474 89.5603,36.7594 C89.5633,36.7474 89.5673,36.7364 89.5693,36.7234" id="Fill-138" fill="#AF3D18"></path>
                <path d="M89.6186,36.5286 C89.6166,36.5406 89.6126,36.5526 89.6096,36.5646 C89.6126,36.5526 89.6166,36.5406 89.6186,36.5286" id="Fill-140" fill="#AF3D18"></path>
                <path d="M89.7114,36.1517 C89.7074,36.1647 89.7054,36.1757 89.7024,36.1877 C89.7054,36.1757 89.7074,36.1647 89.7114,36.1517" id="Fill-142" fill="#AF3D18"></path>
                <path d="M89.9326,35.1675 L89.9326,35.1695 L89.9326,35.1675 Z" id="Fill-144" fill="#AF3D18"></path>
                <path d="M89.9028,35.3084 C89.9018,35.3144 89.9008,35.3204 89.8978,35.3284 C89.9008,35.3204 89.9018,35.3144 89.9028,35.3084" id="Fill-146" fill="#AF3D18"></path>
                <path d="M89.8339,35.6229 C89.8319,35.6359 89.8289,35.6469 89.8259,35.6589 C89.8289,35.6469 89.8319,35.6359 89.8339,35.6229" id="Fill-148" fill="#AF3D18"></path>
                <path d="M89.8691,35.4625 C89.8671,35.4725 89.8651,35.4815 89.8631,35.4915 C89.8651,35.4815 89.8671,35.4725 89.8691,35.4625" id="Fill-150" fill="#AF3D18"></path>
                <path d="M89.7954,35.794 C89.7924,35.806 89.7894,35.819 89.7864,35.832 C89.7894,35.819 89.7924,35.806 89.7954,35.794" id="Fill-152" fill="#AF3D18"></path>
                <path d="M81.5849,52.523 C81.5759,52.534 81.5659,52.544 81.5579,52.556 C81.4839,52.644 81.4089,52.733 81.3329,52.822 C81.3239,52.833 81.3139,52.845 81.3039,52.856 C81.2289,52.945 81.1509,53.033 81.0749,53.122 C81.0649,53.133 81.0559,53.143 81.0459,53.155 C80.9689,53.243 80.8899,53.332 80.8109,53.422 C80.8019,53.431 80.7949,53.441 80.7859,53.45 C80.7049,53.54 80.6239,53.63 80.5429,53.721 C80.5359,53.727 80.5279,53.735 80.5229,53.741 C80.4389,53.834 80.3539,53.926 80.2689,54.019 C80.2649,54.021 80.2609,54.026 80.2569,54.03 C79.2579,55.102 78.1629,56.146 76.9609,57.145 C76.9599,57.146 76.9589,57.148 76.9569,57.149 C76.8539,57.234 76.7499,57.319 76.6459,57.403 C76.6359,57.41 76.6269,57.419 76.6169,57.425 C76.5179,57.506 76.4179,57.586 76.3179,57.666 C76.3029,57.678 76.2879,57.689 76.2739,57.7 C76.1759,57.778 76.0769,57.854 75.9779,57.931 C75.9599,57.945 75.9429,57.958 75.9249,57.971 C75.8279,58.046 75.7309,58.122 75.6319,58.195 C75.6119,58.21 75.5919,58.225 75.5719,58.24 C75.4739,58.313 75.3759,58.387 75.2759,58.459 C75.2549,58.474 75.2349,58.491 75.2139,58.505 C75.1149,58.577 75.0149,58.649 74.9149,58.721 C74.8939,58.736 74.8709,58.751 74.8499,58.767 C74.7499,58.838 74.6489,58.909 74.5459,58.981 C74.5249,58.994 74.5039,59.009 74.4819,59.024 C74.3799,59.096 74.2759,59.167 74.1719,59.237 C74.1509,59.251 74.1309,59.264 74.1109,59.277 C74.0049,59.349 73.8969,59.421 73.7899,59.491 C73.7729,59.503 73.7559,59.513 73.7379,59.525 C73.6269,59.598 73.5149,59.671 73.4019,59.743 C73.3899,59.751 73.3769,59.76 73.3639,59.767 C73.2459,59.842 73.1279,59.917 73.0079,59.991 C73.0029,59.995 72.9979,59.997 72.9919,60.001 C71.8349,60.719 70.6009,61.393 69.2849,62.013 C69.2719,62.019 69.2579,62.027 69.2439,62.033 C69.1169,62.093 68.9879,62.152 68.8579,62.212 C68.8399,62.22 68.8229,62.228 68.8049,62.236 C68.8009,62.238 68.7959,62.239 68.7929,62.242 C68.5539,62.349 68.3139,62.456 68.0709,62.56 C68.0429,62.572 68.0159,62.583 67.9899,62.595 C67.7599,62.693 67.5269,62.79 67.2929,62.885 C67.2769,62.891 67.2619,62.897 67.2459,62.903 C67.0169,62.996 66.7869,63.086 66.5539,63.174 C66.4889,63.199 66.4239,63.224 66.3579,63.249 C66.1409,63.33 65.9199,63.411 65.6989,63.49 L65.6989,63.512 C65.6879,63.509 65.6789,63.505 65.6679,63.501 C65.6579,63.505 65.6479,63.509 65.6379,63.512 L64.4959,63.102 L64.5199,63.074 C48.4849,56.835 43.2729,42.792 41.6979,36.453 C41.2059,34.471 41.0739,31.524 41.0739,31.524 L41.0799,29.162 L53.0209,18.38 L65.7589,29.682 L66.6079,28.613 L64.9139,26.402 L64.5849,25.972 L64.8979,25.559 L66.6079,23.294 L64.8089,21.058 L64.4949,20.668 L64.7949,20.297 L65.0909,19.929 L53.0209,9.22 L41.0979,19.984 L41.1309,4.913 L65.6379,4.852 L65.6679,4.852 L65.6989,4.852 L90.2059,4.913 C90.2059,4.913 90.2619,31.708 90.2619,32.303 C90.2619,32.808 90.1259,33.929 89.9619,34.71 C89.7199,35.866 89.4159,37.304 89.4059,37.342 C89.4059,37.344 89.2949,37.739 89.2369,37.941 C89.0629,38.54 88.8629,39.182 88.6299,39.858 C88.6289,39.861 88.6289,39.863 88.6279,39.866 C88.6019,39.943 88.5739,40.022 88.5459,40.101 C88.5439,40.107 88.5429,40.113 88.5409,40.12 C88.5129,40.196 88.4869,40.273 88.4579,40.351 C88.4549,40.36 88.4529,40.367 88.4489,40.376 C88.4209,40.453 88.3939,40.53 88.3649,40.608 C88.3629,40.616 88.3589,40.625 88.3559,40.634 C88.3279,40.711 88.2989,40.79 88.2699,40.869 C88.2669,40.876 88.2639,40.885 88.2619,40.892 C88.2309,40.971 88.2019,41.051 88.1709,41.13 C88.1689,41.139 88.1649,41.148 88.1619,41.158 C88.1309,41.236 88.0999,41.316 88.0689,41.396 C88.0659,41.405 88.0639,41.413 88.0599,41.42 C88.0289,41.503 87.9969,41.585 87.9639,41.668 C87.9609,41.673 87.9599,41.678 87.9579,41.683 C87.9239,41.769 87.8899,41.854 87.8549,41.941 C87.8539,41.943 87.8539,41.944 87.8529,41.945 C87.3809,43.117 86.8219,44.355 86.1579,45.628 C86.1579,45.629 86.1569,45.63 86.1569,45.632 C86.1069,45.727 86.0569,45.821 86.0069,45.917 C86.0039,45.92 86.0019,45.926 85.9999,45.931 C85.9509,46.023 85.8989,46.117 85.8489,46.21 C85.8459,46.217 85.8419,46.223 85.8379,46.23 C85.7879,46.322 85.7379,46.413 85.6869,46.506 C85.6829,46.513 85.6779,46.522 85.6739,46.53 C85.6229,46.621 85.5719,46.713 85.5209,46.805 C85.5159,46.814 85.5119,46.821 85.5069,46.83 C85.4539,46.921 85.4019,47.013 85.3479,47.107 C85.3439,47.114 85.3399,47.12 85.3359,47.126 C85.2829,47.221 85.2279,47.315 85.1709,47.41 C85.1699,47.414 85.1669,47.419 85.1639,47.424 C85.1079,47.521 85.0499,47.617 84.9919,47.714 C84.9919,47.715 84.9899,47.716 84.9889,47.719 C84.2099,49.018 83.3189,50.336 82.3019,51.635 C82.2989,51.639 82.2979,51.642 82.2949,51.644 C82.2219,51.739 82.1459,51.834 82.0699,51.929 C82.0639,51.935 82.0589,51.943 82.0539,51.949 C81.9809,52.042 81.9049,52.134 81.8299,52.225 C81.8229,52.234 81.8149,52.244 81.8089,52.253 C81.7339,52.343 81.6599,52.433 81.5849,52.523 L81.5849,52.523 Z M94.2649,0.07 L65.7039,0 L65.6679,0 L65.6329,0 L37.0699,0.07 L37.0209,23.666 L37.0159,26.018 L37.0049,30.343 C37.0049,30.343 37.2019,34.905 37.9719,37.75 C40.1189,45.687 46.6869,61.609 65.6329,68.339 L65.6329,68.366 C65.6449,68.36 65.6559,68.356 65.6679,68.352 C65.6799,68.356 65.6909,68.36 65.7039,68.366 L65.7039,68.339 C84.8809,61.527 91.3769,45.295 93.4409,37.462 C93.5429,37.078 93.9259,35.33 94.0049,34.771 C94.2549,32.998 94.3329,31.172 94.3329,31.172 L94.2649,0.07 Z" id="Fill-154" fill="#A22C18"></path>
                <path d="M71.9882,17.5169 C73.0112,18.8649 74.2952,19.6989 75.7182,20.3529 C76.3022,20.6209 76.8322,20.9809 77.3092,21.4169 C77.9032,21.9609 78.0392,22.6449 77.8952,23.3979 C77.7512,24.1509 77.1962,24.5719 76.3822,24.5939 C74.8122,24.6349 73.2872,23.3279 72.9532,21.6389 C72.8862,21.2959 72.8612,20.9419 72.8472,20.5929 C72.8152,19.7719 72.6182,19.0029 72.1602,18.3119 C72.0202,18.1009 71.8952,17.8969 71.9882,17.5169" id="Fill-156" fill="#F9B53D"></path>
                <path d="M72.0214,22.9651 C72.5534,23.6301 73.1494,24.1921 73.8214,24.6731 C74.4284,25.1101 75.0874,25.4521 75.7594,25.7761 C76.2844,26.0301 76.7614,26.3551 77.2074,26.7281 C77.8854,27.2921 78.0614,28.0241 77.8834,28.8521 C77.7154,29.6381 77.0804,30.0511 76.2074,29.9931 C74.4014,29.8701 72.9354,28.3231 72.8594,26.3701 C72.8194,25.3521 72.6494,24.4021 72.0654,23.5511 C71.9594,23.3961 71.8874,23.2231 72.0214,22.9651" id="Fill-158" fill="#F9B53D"></path>
                <path d="M84.6001,17.565 C84.7691,17.891 84.6151,18.081 84.4951,18.259 C83.9671,19.042 83.7811,19.913 83.7661,20.844 C83.7361,22.637 82.5431,24.161 80.9071,24.529 C80.0221,24.728 79.2781,24.493 78.9191,23.9 C78.5061,23.218 78.6021,22.229 79.1651,21.585 C79.6811,20.999 80.3451,20.612 81.0411,20.287 C82.4071,19.648 83.6331,18.832 84.6001,17.565" id="Fill-160" fill="#F9B53D"></path>
                <path d="M84.6098,22.9666 C84.7328,23.3186 84.5998,23.5086 84.4758,23.6956 C83.9568,24.4826 83.7808,25.3546 83.7648,26.2826 C83.7308,28.1966 82.3478,29.7806 80.5748,29.9696 C79.8978,30.0416 79.2628,29.9466 78.9188,29.2836 C78.5548,28.5816 78.5348,27.8456 79.0228,27.1746 C79.4438,26.5926 80.0368,26.2066 80.6648,25.8836 C81.3988,25.5066 82.1428,25.1496 82.8158,24.6626 C83.4678,24.1906 84.0588,23.6536 84.6098,22.9666" id="Fill-162" fill="#F9B53D"></path>
                <path d="M72.0214,33.5203 C72.5534,34.1853 73.1494,34.7473 73.8214,35.2283 C74.4284,35.6643 75.0874,36.0073 75.7594,36.3313 C76.2844,36.5853 76.7614,36.9103 77.2074,37.2813 C77.8854,37.8473 78.0614,38.5803 77.8834,39.4063 C77.7154,40.1913 77.0804,40.6073 76.2074,40.5483 C74.4014,40.4253 72.9354,38.8783 72.8594,36.9253 C72.8194,35.9073 72.6494,34.9573 72.0654,34.1073 C71.9594,33.9513 71.8874,33.7783 72.0214,33.5203" id="Fill-164" fill="#F9B53D"></path>
                <path d="M84.6098,33.5215 C84.7328,33.8735 84.5998,34.0635 84.4758,34.2505 C83.9568,35.0375 83.7808,35.9095 83.7648,36.8395 C83.7308,38.7515 82.3478,40.3355 80.5748,40.5245 C79.8978,40.5965 79.2628,40.5015 78.9188,39.8395 C78.5548,39.1365 78.5348,38.4005 79.0228,37.7295 C79.4438,37.1475 80.0368,36.7615 80.6648,36.4385 C81.3988,36.0615 82.1428,35.7045 82.8158,35.2185 C83.4678,34.7455 84.0588,34.2085 84.6098,33.5215" id="Fill-166" fill="#F9B53D"></path>
                <path d="M73.1806,11.6961 C73.4056,12.0591 73.6246,12.4241 73.8566,12.7811 C74.4876,13.7441 75.2646,14.5501 76.2606,15.1551 C76.9526,15.5781 77.5746,16.1151 77.8236,16.9331 C78.0376,17.6331 78.0446,18.3441 77.5236,18.9241 C77.0186,19.4851 76.3266,19.4501 75.6716,19.3141 C74.0796,18.9831 73.1136,17.5401 73.3786,15.6611 C73.5556,14.4041 73.6706,13.2071 73.0766,12.0361 C73.0356,11.9561 73.0706,11.8371 73.0706,11.7361 C73.1076,11.7221 73.1446,11.7101 73.1806,11.6961" id="Fill-168" fill="#F9B53D"></path>
                <path d="M83.4877,11.6111 C83.6337,12.0881 83.4327,12.3801 83.3127,12.6741 C83.0287,13.3681 82.9667,14.0651 83.1317,14.7971 C83.3097,15.5901 83.3497,16.3911 83.1467,17.1911 C82.7737,18.6441 81.4537,19.5491 79.9757,19.3601 C78.8447,19.2151 78.3097,17.8711 78.9037,16.6571 C79.2037,16.0431 79.6797,15.5661 80.2497,15.2341 C81.6027,14.4441 82.5347,13.2891 83.2767,11.9501 C83.3227,11.8651 83.3787,11.7851 83.4877,11.6111" id="Fill-170" fill="#F9B53D"></path>
                <path d="M72.0214,28.243 C72.5534,28.908 73.1494,29.47 73.8214,29.951 C74.4284,30.386 75.0874,30.73 75.7594,31.054 C76.2844,31.308 76.7614,31.633 77.2074,32.004 C77.8854,32.57 78.0614,33.302 77.8834,34.129 C77.7154,34.914 77.0804,35.329 76.2074,35.271 C74.4014,35.148 72.9354,33.601 72.8594,31.648 C72.8194,30.63 72.6494,29.68 72.0654,28.829 C71.9594,28.674 71.8874,28.501 72.0214,28.243" id="Fill-172" fill="#F9B53D"></path>
                <path d="M84.6098,28.2442 C84.7328,28.5952 84.5998,28.7852 84.4758,28.9732 C83.9568,29.7602 83.7808,30.6322 83.7648,31.5602 C83.7308,33.4732 82.3478,35.0582 80.5748,35.2472 C79.8978,35.3192 79.2628,35.2242 78.9188,34.5612 C78.5548,33.8592 78.5348,33.1232 79.0228,32.4522 C79.4438,31.8702 80.0368,31.4842 80.6648,31.1612 C81.3988,30.7842 82.1428,30.4272 82.8158,29.9412 C83.4678,29.4682 84.0588,28.9312 84.6098,28.2442" id="Fill-174" fill="#F9B53D"></path>
                <polygon id="Fill-176" fill="#044B84" points="5.68434189e-14 80.9583 1.899 80.9583 1.899 86.6553 3.913 86.6553 7.327 80.9583 9.418 80.9583 5.485 87.3833 5.485 87.4223 9.667 94.4993 7.519 94.4993 3.913 88.2853 1.899 88.2853 1.899 94.4993 5.68434189e-14 94.4993"></polygon>
                <path d="M17.3959,88.5152 C17.3389,86.8472 16.3029,86.0412 15.0559,86.0412 C13.6369,86.0412 12.4859,86.9242 12.2179,88.5152 L17.3959,88.5152 Z M15.0939,84.5642 C17.8369,84.5642 19.2949,86.5972 19.2949,89.1102 C19.2949,89.3592 19.2379,89.9152 19.2379,89.9152 L12.1599,89.9152 C12.2559,92.0442 13.7709,93.1182 15.4969,93.1182 C17.1669,93.1182 18.3739,91.9862 18.3739,91.9862 L19.1419,93.3482 C19.1419,93.3482 17.7029,94.7292 15.3819,94.7292 C12.3329,94.7292 10.2419,92.5242 10.2419,89.6472 C10.2419,86.5592 12.3329,84.5642 15.0939,84.5642 L15.0939,84.5642 Z" id="Fill-178" fill="#044B84"></path>
                <path d="M20.9438,80.9583 L22.8038,80.9583 L22.8038,91.5273 C22.8038,92.6963 23.2648,92.9073 23.8398,92.9073 C24.0128,92.9073 24.1658,92.8883 24.1658,92.8883 L24.1658,94.5383 C24.1658,94.5383 23.8788,94.5763 23.5528,94.5763 C22.4978,94.5763 20.9438,94.2883 20.9438,91.8523 L20.9438,80.9583 Z" id="Fill-180" fill="#044B84"></path>
                <path d="M25.5278,80.9583 L27.3878,80.9583 L27.3878,91.5273 C27.3878,92.6963 27.8488,92.9073 28.4238,92.9073 C28.5968,92.9073 28.7498,92.8883 28.7498,92.8883 L28.7498,94.5383 C28.7498,94.5383 28.4638,94.5763 28.1368,94.5763 C27.0818,94.5763 25.5278,94.2883 25.5278,91.8523 L25.5278,80.9583 Z" id="Fill-182" fill="#044B84"></path>
                <path d="M34.7534,93.1185 C36.5954,93.1185 38.0904,91.6605 38.0904,89.6275 C38.0904,87.6135 36.5954,86.1745 34.7534,86.1745 C32.9304,86.1745 31.4174,87.6135 31.4174,89.6275 C31.4174,91.6605 32.9304,93.1185 34.7534,93.1185 M34.7534,84.5635 C37.6494,84.5635 39.9894,86.6935 39.9894,89.6275 C39.9894,92.5815 37.6494,94.7295 34.7534,94.7295 C31.8574,94.7295 29.5184,92.5815 29.5184,89.6275 C29.5184,86.6935 31.8574,84.5635 34.7534,84.5635" id="Fill-184" fill="#044B84"></path>
                <path d="M48.3325,89.4358 C48.3325,86.9048 47.1055,86.1758 45.5895,86.1758 C43.9015,86.1758 42.9435,87.4018 42.9435,89.3788 C42.9435,91.3918 44.0175,92.7738 45.7625,92.7738 C47.1055,92.7738 48.3325,91.9668 48.3325,89.4358 M45.2255,96.9158 C46.9135,96.9158 48.2945,96.1678 48.2945,94.1928 L48.2945,93.4828 C48.2945,93.1758 48.3125,92.8688 48.3125,92.8688 L48.2745,92.8688 C47.6995,93.8288 46.7975,94.3848 45.3985,94.3848 C42.6935,94.3848 41.0625,92.2168 41.0625,89.4158 C41.0625,86.6348 42.6165,84.5638 45.3025,84.5638 C47.6415,84.5638 48.3525,86.0018 48.3525,86.0018 L48.3895,86.0018 C48.3895,86.0018 48.3715,85.8688 48.3715,85.6958 L48.3715,84.7948 L50.1555,84.7948 L50.1555,94.0968 C50.1555,97.2998 47.7195,98.5268 45.2645,98.5268 C44.0945,98.5268 42.8865,98.2018 41.9445,97.7208 L42.5595,96.2638 C42.5595,96.2638 43.7675,96.9158 45.2255,96.9158" id="Fill-186" fill="#044B84"></path>
                <path d="M59.207,89.4358 C59.207,86.9048 57.979,86.1758 56.464,86.1758 C54.777,86.1758 53.818,87.4018 53.818,89.3788 C53.818,91.3918 54.892,92.7738 56.636,92.7738 C57.979,92.7738 59.207,91.9668 59.207,89.4358 M56.1,96.9158 C57.788,96.9158 59.17,96.1678 59.17,94.1928 L59.17,93.4828 C59.17,93.1758 59.187,92.8688 59.187,92.8688 L59.15,92.8688 C58.574,93.8288 57.672,94.3848 56.273,94.3848 C53.569,94.3848 51.938,92.2168 51.938,89.4158 C51.938,86.6348 53.492,84.5638 56.176,84.5638 C58.517,84.5638 59.226,86.0018 59.226,86.0018 L59.265,86.0018 C59.265,86.0018 59.246,85.8688 59.246,85.6958 L59.246,84.7948 L61.029,84.7948 L61.029,94.0968 C61.029,97.2998 58.594,98.5268 56.139,98.5268 C54.968,98.5268 53.76,98.2018 52.819,97.7208 L53.434,96.2638 C53.434,96.2638 54.643,96.9158 56.1,96.9158" id="Fill-188" fill="#044B84"></path>
                <path d="M73.7641,80.7281 C77.0251,80.7281 78.6931,82.5121 78.6931,82.5121 L77.7541,83.9311 C77.7541,83.9311 76.1811,82.4551 73.8401,82.4551 C70.8101,82.4551 68.8351,84.7571 68.8351,87.6331 C68.8351,90.5301 70.8491,92.9851 73.8601,92.9851 C76.4111,92.9851 78.0411,91.2191 78.0411,91.2191 L79.0571,92.5811 C79.0571,92.5811 77.1971,94.7291 73.8021,94.7291 C69.7361,94.7291 66.8791,91.6221 66.8791,87.6521 C66.8791,83.7201 69.8321,80.7281 73.7641,80.7281" id="Fill-190" fill="#044B84"></path>
                <path d="M85.291,93.1185 C87.131,93.1185 88.627,91.6605 88.627,89.6275 C88.627,87.6135 87.131,86.1745 85.291,86.1745 C83.468,86.1745 81.953,87.6135 81.953,89.6275 C81.953,91.6605 83.468,93.1185 85.291,93.1185 M85.291,84.5635 C88.187,84.5635 90.527,86.6935 90.527,89.6275 C90.527,92.5815 88.187,94.7295 85.291,94.7295 C82.395,94.7295 80.055,92.5815 80.055,89.6275 C80.055,86.6935 82.395,84.5635 85.291,84.5635" id="Fill-192" fill="#044B84"></path>
                <path d="M92.1181,80.9583 L93.9801,80.9583 L93.9801,91.5273 C93.9801,92.6963 94.4391,92.9073 95.0141,92.9073 C95.1871,92.9073 95.3401,92.8883 95.3401,92.8883 L95.3401,94.5383 C95.3401,94.5383 95.0531,94.5763 94.7261,94.5763 C93.6721,94.5763 92.1181,94.2883 92.1181,91.8523 L92.1181,80.9583 Z" id="Fill-194" fill="#044B84"></path>
                <path d="M96.7026,80.9583 L98.5626,80.9583 L98.5626,91.5273 C98.5626,92.6963 99.0226,92.9073 99.5986,92.9073 C99.7706,92.9073 99.9246,92.8883 99.9246,92.8883 L99.9246,94.5383 C99.9246,94.5383 99.6366,94.5763 99.3106,94.5763 C98.2556,94.5763 96.7026,94.2883 96.7026,91.8523 L96.7026,80.9583 Z" id="Fill-196" fill="#044B84"></path>
                <path d="M107.8847,88.5152 C107.8257,86.8472 106.7907,86.0412 105.5437,86.0412 C104.1247,86.0412 102.9747,86.9242 102.7047,88.5152 L107.8847,88.5152 Z M105.5827,84.5642 C108.3257,84.5642 109.7837,86.5972 109.7837,89.1102 C109.7837,89.3592 109.7247,89.9152 109.7247,89.9152 L102.6487,89.9152 C102.7437,92.0442 104.2587,93.1182 105.9857,93.1182 C107.6537,93.1182 108.8627,91.9862 108.8627,91.9862 L109.6287,93.3482 C109.6287,93.3482 108.1917,94.7292 105.8707,94.7292 C102.8207,94.7292 100.7297,92.5242 100.7297,89.6472 C100.7297,86.5592 102.8207,84.5642 105.5827,84.5642 L105.5827,84.5642 Z" id="Fill-198" fill="#044B84"></path>
                <path d="M118.1835,89.4358 C118.1835,86.9048 116.9565,86.1758 115.4405,86.1758 C113.7525,86.1758 112.7935,87.4018 112.7935,89.3788 C112.7935,91.3918 113.8675,92.7738 115.6135,92.7738 C116.9565,92.7738 118.1835,91.9668 118.1835,89.4358 M115.0765,96.9158 C116.7635,96.9158 118.1445,96.1678 118.1445,94.1928 L118.1445,93.4828 C118.1445,93.1758 118.1635,92.8688 118.1635,92.8688 L118.1245,92.8688 C117.5505,93.8288 116.6485,94.3848 115.2485,94.3848 C112.5435,94.3848 110.9145,92.2168 110.9145,89.4158 C110.9145,86.6348 112.4675,84.5638 115.1535,84.5638 C117.4925,84.5638 118.2035,86.0018 118.2035,86.0018 L118.2405,86.0018 C118.2405,86.0018 118.2215,85.8688 118.2215,85.6958 L118.2215,84.7948 L120.0055,84.7948 L120.0055,94.0968 C120.0055,97.2998 117.5685,98.5268 115.1155,98.5268 C113.9455,98.5268 112.7355,98.2018 111.7955,97.7208 L112.4095,96.2638 C112.4095,96.2638 113.6185,96.9158 115.0765,96.9158" id="Fill-200" fill="#044B84"></path>
                <path d="M128.9047,88.5152 C128.8467,86.8472 127.8107,86.0412 126.5647,86.0412 C125.1457,86.0412 123.9947,86.9242 123.7267,88.5152 L128.9047,88.5152 Z M126.6027,84.5642 C129.3457,84.5642 130.8037,86.5972 130.8037,89.1102 C130.8037,89.3592 130.7457,89.9152 130.7457,89.9152 L123.6687,89.9152 C123.7637,92.0442 125.2797,93.1182 127.0057,93.1182 C128.6737,93.1182 129.8827,91.9862 129.8827,91.9862 L130.6487,93.3482 C130.6487,93.3482 129.2117,94.7292 126.8907,94.7292 C123.8417,94.7292 121.7497,92.5242 121.7497,89.6472 C121.7497,86.5592 123.8417,84.5642 126.6027,84.5642 L126.6027,84.5642 Z" id="Fill-202" fill="#044B84"></path>
                <path d="M14.7421,105.5281 L15.2371,105.5281 L15.2371,110.7991 C15.2371,112.3181 16.2261,113.2501 17.7461,113.2501 C19.2651,113.2501 20.2661,112.3181 20.2661,110.7771 L20.2661,105.5281 L20.7611,105.5281 L20.7611,110.8221 C20.7611,112.5951 19.5291,113.7221 17.7571,113.7221 C15.9851,113.7221 14.7421,112.5951 14.7421,110.8221 L14.7421,105.5281 Z" id="Fill-204" fill="#044B84"></path>
                <path d="M22.8647,107.8296 L23.3487,107.8296 L23.3487,108.8426 C23.3487,109.1066 23.3027,109.3146 23.3027,109.3146 L23.3247,109.3146 C23.5207,108.7736 24.3257,107.6916 25.7647,107.6916 C27.2607,107.6916 27.6637,108.5776 27.6637,109.9356 L27.6637,113.5836 L27.1797,113.5836 L27.1797,110.1076 C27.1797,109.1066 27.0537,108.1636 25.7647,108.1636 C24.4527,108.1636 23.3487,109.2456 23.3487,110.7176 L23.3487,113.5836 L22.8647,113.5836 L22.8647,107.8296 Z" id="Fill-206" fill="#044B84"></path>
                <path d="M29.6417,113.5833 L30.1247,113.5833 L30.1247,107.8293 L29.6417,107.8293 L29.6417,113.5833 Z M29.5957,106.3693 L30.1707,106.3693 L30.1707,105.5283 L29.5957,105.5283 L29.5957,106.3693 Z" id="Fill-208" fill="#044B84"></path>
                <path d="M31.5166,107.8296 L32.0346,107.8296 L33.8066,112.3406 C33.9106,112.6166 34.0016,112.9626 34.0016,112.9626 L34.0256,112.9626 C34.0256,112.9626 34.1166,112.6166 34.2216,112.3406 L35.9936,107.8296 L36.4996,107.8296 L34.2446,113.5836 L33.7836,113.5836 L31.5166,107.8296 Z" id="Fill-210" fill="#044B84"></path>
                <path d="M41.9531,110.1771 C41.8961,108.7731 41.0551,108.1401 40.1001,108.1401 C39.0411,108.1401 38.0641,108.8311 37.8571,110.1771 L41.9531,110.1771 Z M40.1121,107.6921 C41.6771,107.6921 42.4601,108.9231 42.4601,110.3151 C42.4601,110.4081 42.4481,110.5221 42.4371,110.6251 L37.8221,110.6251 C37.8221,112.2951 38.9491,113.2501 40.2851,113.2501 C40.9291,113.2501 41.6081,112.9861 42.0691,112.5241 L42.3321,112.9271 C41.8271,113.4111 41.0211,113.7221 40.2851,113.7221 C38.6621,113.7221 37.3161,112.5481 37.3161,110.7181 C37.3161,108.7731 38.6391,107.6921 40.1121,107.6921 L40.1121,107.6921 Z" id="Fill-211" fill="#044B84"></path>
                <path d="M44.0688,107.8296 L44.5528,107.8296 L44.5528,108.9236 C44.5528,109.1876 44.5058,109.3946 44.5058,109.3946 L44.5288,109.3946 C44.8178,108.5086 45.4608,107.7836 46.3708,107.7836 C46.4858,107.7836 46.5998,107.7946 46.7048,107.8196 L46.7048,108.3016 C46.6708,108.2896 46.5548,108.2776 46.4398,108.2776 C45.0928,108.2776 44.5528,109.9236 44.5528,111.0986 L44.5528,113.5836 L44.0688,113.5836 L44.0688,107.8296 Z" id="Fill-212" fill="#044B84"></path>
                <path d="M47.7968,112.525 C48.2348,112.985 48.9238,113.251 49.5808,113.251 C50.2818,113.251 50.9038,112.882 50.9038,112.169 C50.9038,110.707 47.7388,111.121 47.7388,109.246 C47.7388,108.221 48.6018,107.692 49.5808,107.692 C50.1788,107.692 50.8468,107.864 51.2828,108.313 L50.9968,108.705 C50.6628,108.348 50.0748,108.164 49.5458,108.164 C48.8898,108.164 48.2458,108.463 48.2458,109.211 C48.2458,110.707 51.4108,110.258 51.4108,112.169 C51.4108,113.089 50.6278,113.722 49.5688,113.722 C48.8328,113.722 48.0158,113.469 47.4858,112.893 L47.7968,112.525 Z" id="Fill-213" fill="#044B84"></path>
                <path d="M52.9967,113.5833 L53.4797,113.5833 L53.4797,107.8293 L52.9967,107.8293 L52.9967,113.5833 Z M52.9517,106.3693 L53.5267,106.3693 L53.5267,105.5283 L52.9517,105.5283 L52.9517,106.3693 Z" id="Fill-214" fill="#044B84"></path>
                <path d="M55.6894,108.3016 L54.9294,108.3016 L54.9294,107.8646 L55.6894,107.8646 L55.6894,106.2306 L56.1724,106.2306 L56.1724,107.8646 L57.6804,107.8646 L57.6804,108.3016 L56.1724,108.3016 L56.1724,111.4666 C56.1724,112.9856 57.0814,113.1816 57.5424,113.1816 C57.6224,113.1816 57.7144,113.1816 57.8074,113.1576 L57.8074,113.6066 C57.7604,113.6176 57.6574,113.6296 57.5194,113.6296 C56.9204,113.6296 55.6894,113.4106 55.6894,111.5016 L55.6894,108.3016 Z" id="Fill-215" fill="#044B84"></path>
                <path d="M59.2329,115.5401 C59.7849,115.5401 60.1309,115.0451 60.3599,114.5041 L60.7749,113.5491 L58.3939,107.8301 L58.9109,107.8301 L60.8089,112.4211 C60.9239,112.6971 61.0169,112.9621 61.0169,112.9621 L61.0389,112.9621 C61.0389,112.9621 61.1199,112.6971 61.2349,112.4211 L63.1339,107.8301 L63.6519,107.8301 L60.6949,114.9301 C60.4409,115.5291 59.9589,116.0001 59.2329,116.0001 C58.6799,116.0001 58.3009,115.6781 58.3009,115.6781 L58.5199,115.2641 C58.5199,115.2641 58.8419,115.5401 59.2329,115.5401" id="Fill-216" fill="#044B84"></path>
                <path d="M70.1982,113.2503 C71.5682,113.2503 72.6722,112.1333 72.6722,110.6723 C72.6722,109.2453 71.5682,108.1633 70.1982,108.1633 C68.8282,108.1633 67.7242,109.2453 67.7242,110.6723 C67.7242,112.1333 68.8282,113.2503 70.1982,113.2503 M70.1982,107.6913 C71.8442,107.6913 73.1792,108.9923 73.1792,110.6723 C73.1792,112.3873 71.8442,113.7223 70.1982,113.7223 C68.5522,113.7223 67.2172,112.3873 67.2172,110.6723 C67.2172,108.9923 68.5522,107.6913 70.1982,107.6913" id="Fill-217" fill="#044B84"></path>
                <path d="M74.9033,108.3016 L74.1773,108.3016 L74.1773,107.8646 L74.9033,107.8646 L74.9033,107.6006 C74.9033,105.7006 76.1453,105.4706 76.7213,105.4706 C76.8363,105.4706 76.9283,105.4826 77.0203,105.4946 L77.0203,105.9426 C76.9743,105.9306 76.8713,105.9186 76.7553,105.9186 C76.2953,105.9186 75.3863,106.1036 75.3863,107.5886 L75.3863,107.8646 L76.9633,107.8646 L76.9633,108.3016 L75.3863,108.3016 L75.3863,113.5836 L74.9033,113.5836 L74.9033,108.3016 Z" id="Fill-218" fill="#044B84"></path>
                <path d="M84.7065,113.2503 C86.7435,113.2503 88.2635,111.6163 88.2635,109.4983 C88.2635,107.4383 86.7435,105.8613 84.7065,105.8613 C82.6695,105.8613 81.1505,107.4383 81.1505,109.4983 C81.1505,111.6163 82.6695,113.2503 84.7065,113.2503 M84.7065,105.3903 C87.0195,105.3903 88.7795,107.1863 88.7795,109.4983 C88.7795,111.8693 87.0195,113.7223 84.7065,113.7223 C82.3935,113.7223 80.6325,111.8693 80.6325,109.4983 C80.6325,107.1863 82.3935,105.3903 84.7065,105.3903" id="Fill-219" fill="#044B84"></path>
                <path d="M91.7011,110.5455 L89.8481,107.8295 L90.4351,107.8295 L91.8271,109.9235 C91.9201,110.0735 92.0241,110.2455 92.0241,110.2455 L92.0471,110.2455 C92.0471,110.2455 92.1501,110.0735 92.2421,109.9235 L93.6351,107.8295 L94.2221,107.8295 L92.3681,110.5455 L94.4401,113.5835 L93.8411,113.5835 L92.2541,111.2015 C92.1501,111.0405 92.0471,110.8675 92.0471,110.8675 L92.0241,110.8675 C92.0241,110.8675 91.9321,111.0295 91.8171,111.2015 L90.2281,113.5835 L89.6301,113.5835 L91.7011,110.5455 Z" id="Fill-220" fill="#044B84"></path>
                <path d="M95.9008,108.3016 L95.1748,108.3016 L95.1748,107.8646 L95.9008,107.8646 L95.9008,107.6006 C95.9008,105.7006 97.1428,105.4706 97.7188,105.4706 C97.8338,105.4706 97.9258,105.4826 98.0178,105.4946 L98.0178,105.9426 C97.9718,105.9306 97.8688,105.9186 97.7528,105.9186 C97.2928,105.9186 96.3838,106.1036 96.3838,107.5886 L96.3838,107.8646 L97.9598,107.8646 L97.9598,108.3016 L96.3838,108.3016 L96.3838,113.5836 L95.9008,113.5836 L95.9008,108.3016 Z" id="Fill-221" fill="#044B84"></path>
                <path d="M101.642,113.2503 C103.012,113.2503 104.116,112.1333 104.116,110.6723 C104.116,109.2453 103.012,108.1633 101.642,108.1633 C100.272,108.1633 99.168,109.2453 99.168,110.6723 C99.168,112.1333 100.272,113.2503 101.642,113.2503 M101.642,107.6913 C103.288,107.6913 104.623,108.9923 104.623,110.6723 C104.623,112.3873 103.288,113.7223 101.642,113.7223 C99.996,113.7223 98.661,112.3873 98.661,110.6723 C98.661,108.9923 99.996,107.6913 101.642,107.6913" id="Fill-222" fill="#044B84"></path>
                <path d="M106.2436,107.8296 L106.7266,107.8296 L106.7266,108.9236 C106.7266,109.1876 106.6806,109.3946 106.6806,109.3946 L106.7036,109.3946 C106.9916,108.5086 107.6356,107.7836 108.5456,107.7836 C108.6606,107.7836 108.7746,107.7946 108.8786,107.8196 L108.8786,108.3016 C108.8446,108.2896 108.7286,108.2776 108.6146,108.2776 C107.2676,108.2776 106.7266,109.9236 106.7266,111.0986 L106.7266,113.5836 L106.2436,113.5836 L106.2436,107.8296 Z" id="Fill-223" fill="#044B84"></path>
                <path d="M112.1118,113.2503 C113.1698,113.2503 114.1608,112.5023 114.1608,110.6963 C114.1608,109.4183 113.5038,108.1633 112.1568,108.1633 C111.0298,108.1633 110.1098,109.0953 110.1098,110.7073 C110.1098,112.2603 110.9378,113.2503 112.1118,113.2503 M112.1808,107.6913 C113.0668,107.6913 113.8148,108.2203 114.1728,108.9923 L114.1948,108.9923 C114.1948,108.9923 114.1488,108.7853 114.1488,108.5203 L114.1488,105.5283 L114.6328,105.5283 L114.6328,113.5843 L114.1488,113.5843 L114.1488,112.8593 C114.1488,112.5943 114.1948,112.4213 114.1948,112.4213 L114.1728,112.4213 C113.8608,113.1123 113.1598,113.7223 112.0888,113.7223 C110.5468,113.7223 109.6028,112.4903 109.6028,110.7073 C109.6028,108.8763 110.6728,107.6913 112.1808,107.6913" id="Fill-224" fill="#044B84"></path>
            </g>
        </g>
    </g>
</svg>